<?xml version="1.0" encoding="utf-8"?>
<!-- Generator: Adobe Illustrator 26.5.0, SVG Export Plug-In . SVG Version: 6.00 Build 0)  -->
<svg version="1.1" id="Layer_1" xmlns="http://www.w3.org/2000/svg" xmlns:xlink="http://www.w3.org/1999/xlink" x="0px" y="0px"
	 viewBox="0 0 484.62 126.45" style="enable-background:new 0 0 484.62 126.45;" xml:space="preserve">

<g>
	<path class="st0" d="M286.18,29.94v7.16h-19.06V4.56h7.44v25.38H286.18z"/>
	<path class="st0" d="M286.19,20.83c0-9.58,7.58-16.92,16.92-16.92c9.34,0,16.92,7.35,16.92,16.92c0,9.57-7.58,16.92-16.92,16.92
		C293.77,37.75,286.19,30.4,286.19,20.83z M312.6,20.83c0-5.81-4.18-9.67-9.48-9.67s-9.48,3.86-9.48,9.67
		c0,5.81,4.18,9.67,9.48,9.67S312.6,26.64,312.6,20.83z"/>
	<path class="st0" d="M323.77,26.59V4.56h7.44v21.38c0,2.46,1.16,4.55,5.11,4.55c3.95,0,5.11-2.09,5.11-4.55V4.56h7.44v22.03
		c0,6.97-5.39,11.16-12.55,11.16C329.16,37.75,323.77,33.57,323.77,26.59z"/>
	<path class="st0" d="M383.05,20.83c0,9.2-6.83,16.27-15.8,16.27h-13.02V4.56h13.02C376.22,4.56,383.05,11.63,383.05,20.83z
		 M375.89,20.83c0-5.58-3.53-9.11-8.65-9.11h-5.58v18.22h5.58C372.36,29.94,375.89,26.41,375.89,20.83z"/>
	<path class="st0" d="M287.58,72.57v7.16h-20.45V47.19h20.22v7.16h-12.78v5.39h11.62v7.07h-11.62v5.76H287.58z"/>
	<path class="st0" d="M290.15,72.34l6.41-3.72c1.16,2.7,3.16,4.51,6.83,4.51c3.53,0,4.42-1.39,4.42-2.65c0-2-1.86-2.79-6.74-4.14
		c-4.83-1.35-9.58-3.67-9.58-9.9c0-6.28,5.3-9.9,10.92-9.9c5.35,0,9.53,2.56,11.9,7.35l-6.28,3.67c-1.11-2.32-2.65-3.77-5.62-3.77
		c-2.32,0-3.49,1.16-3.49,2.46c0,1.49,0.79,2.51,5.86,4.04c4.93,1.49,10.46,3.21,10.46,10.09c0,6.28-5.02,9.99-12.09,9.99
		C296.33,80.38,291.96,77.12,290.15,72.34z"/>
	<path class="st0" d="M342.45,58.35c0,6.18-4.97,11.15-11.39,11.15h-4.88v10.23h-7.44V47.19h12.32
		C337.48,47.19,342.45,52.16,342.45,58.35z M335.02,58.35c0-2.37-1.67-4.18-3.95-4.18h-4.88v8.37h4.88
		C333.34,62.53,335.02,60.72,335.02,58.35z"/>
	<path class="st0" d="M344.56,63.46c0-9.58,7.58-16.92,16.92-16.92c9.34,0,16.92,7.35,16.92,16.92c0,9.57-7.58,16.92-16.92,16.92
		C352.13,80.38,344.56,73.03,344.56,63.46z M370.96,63.46c0-5.81-4.18-9.67-9.48-9.67s-9.48,3.86-9.48,9.67
		c0,5.81,4.18,9.67,9.48,9.67S370.96,69.27,370.96,63.46z"/>
	<path class="st0" d="M393.57,69.04h-3.53v10.69h-7.44V47.19h13.02c6.18,0,11.15,4.97,11.15,11.16c0,4-2.42,7.62-6,9.44l6.93,11.95
		h-8L393.57,69.04z M390.04,62.53h5.58c2.04,0,3.72-1.81,3.72-4.18c0-2.37-1.67-4.18-3.72-4.18h-5.58V62.53z"/>
	<path class="st0" d="M432.35,54.35h-8.37v25.38h-7.44V54.35h-8.37v-7.16h24.17V54.35z"/>
	<path class="st0" d="M433.06,72.34l6.41-3.72c1.16,2.7,3.16,4.51,6.83,4.51c3.53,0,4.42-1.39,4.42-2.65c0-2-1.86-2.79-6.74-4.14
		c-4.83-1.35-9.58-3.67-9.58-9.9c0-6.28,5.3-9.9,10.92-9.9c5.35,0,9.53,2.56,11.9,7.35l-6.28,3.67c-1.11-2.32-2.65-3.77-5.62-3.77
		c-2.32,0-3.49,1.16-3.49,2.46c0,1.49,0.79,2.51,5.86,4.04c4.93,1.49,10.46,3.21,10.46,10.09c0,6.28-5.02,9.99-12.09,9.99
		C439.24,80.38,434.87,77.12,433.06,72.34z"/>
	<path class="st0" d="M292.69,89.82v32.54h-5.58l-12.55-17.66v17.66h-7.44V89.82h5.58l12.55,17.66V89.82H292.69z"/>
	<path class="st0" d="M318.74,115.2v7.16h-20.45V89.82h20.22v7.16h-12.78v5.39h11.62v7.07h-11.62v5.76H318.74z"/>
	<path class="st0" d="M344.78,96.98h-8.37v25.38h-7.44V96.98h-8.37v-7.16h24.17V96.98z"/>
	<path class="st0" d="M345.72,89.82h7.81l5.62,22.78l6.28-22.78h6.04l6.28,22.78l5.62-22.78h7.81l-8.97,32.54h-8.46l-5.3-19.2
		l-5.3,19.2h-8.46L345.72,89.82z"/>
	<path class="st0" d="M391.66,106.09c0-9.58,7.58-16.92,16.92-16.92c9.34,0,16.92,7.35,16.92,16.92c0,9.57-7.58,16.92-16.92,16.92
		C399.24,123.01,391.66,115.66,391.66,106.09z M418.07,106.09c0-5.81-4.18-9.67-9.48-9.67s-9.48,3.86-9.48,9.67
		c0,5.81,4.18,9.67,9.48,9.67S418.07,111.9,418.07,106.09z"/>
	<path class="st0" d="M440.68,111.67h-3.53v10.69h-7.44V89.82h13.02c6.18,0,11.15,4.97,11.15,11.16c0,4-2.42,7.62-6,9.44l6.93,11.95
		h-8L440.68,111.67z M437.14,105.16h5.58c2.04,0,3.72-1.81,3.72-4.18c0-2.37-1.67-4.18-3.72-4.18h-5.58V105.16z"/>
	<path class="st0" d="M476.16,122.36l-10.41-15.06v15.06h-7.44V89.82h7.44v14.13l9.95-14.13h8.46l-10.97,15.85l11.43,16.69H476.16z"
		/>
</g>
<path class="st1" d="M237.39,0H11.16C5,0,0,5,0,11.16v104.13c0,6.16,5,11.16,11.16,11.16h226.23c6.16,0,11.16-5,11.16-11.16V11.16
	C248.55,5,243.55,0,237.39,0z M76.92,107.98H24.5V18.47h20.46v69.81h31.96V107.98z M142.17,107.98H85.91V18.47h55.62v19.69h-35.16
	V53h31.96v19.44h-31.96v15.85h35.8V107.98z M224.05,107.98H208.7l-34.52-48.59v48.59h-20.46V18.47h15.34l34.52,48.59V18.47h20.46
	V107.98z"/>
</svg>
