<?xml version="1.0" encoding="utf-8"?>
<!-- Generator: Adobe Illustrator 26.5.0, SVG Export Plug-In . SVG Version: 6.00 Build 0)  -->
<svg version="1.1" id="Layer_1" xmlns="http://www.w3.org/2000/svg" xmlns:xlink="http://www.w3.org/1999/xlink" x="0px" y="0px"
	 viewBox="0 0 192.92 219" style="enable-background:new 0 0 192.92 219;" xml:space="preserve">
<g>
	<polygon points="0,156.95 49.55,156.95 49.55,52.12 49.55,4.72 0,14.64 	"/>
	<path d="M70.57,1.2l-9.78,1.39v50.92l17.87-0.83c6.76,0,14.26,0.43,20.34,2.19c23.03,6.68,38.28,26.9,38.15,54.9
		c0.17,35.4-26.65,58.25-59.01,58.25H60.78V219H81.8c70.29,0,109.82-46.16,111.12-109.23c-1.15-56.06-32.52-99.5-88.84-108.46
		C92.99-0.46,81.68-0.38,70.57,1.2z"/>
	<rect y="168.19" width="49.55" height="50.81"/>
</g>
</svg>
