<?xml version="1.0" encoding="utf-8"?>
<!-- Generator: Adobe Illustrator 26.5.0, SVG Export Plug-In . SVG Version: 6.00 Build 0)  -->
<svg version="1.1" id="Layer_1" xmlns="http://www.w3.org/2000/svg" xmlns:xlink="http://www.w3.org/1999/xlink" x="0px" y="0px"
	 viewBox="0 0 639.53 219.29" style="enable-background:new 0 0 639.53 219.29;" xml:space="preserve">
<g>
	<g>
		<path d="M174.73,71.53c-39.38,0-71.3,33.02-71.3,73.74c0,40.73,31.92,73.74,71.3,73.74s71.3-33.02,71.3-73.74
			C246.02,104.55,214.1,71.53,174.73,71.53z M174.73,173.55c-14.23,0-25.81-12.68-25.81-28.27s11.58-28.27,25.81-28.27
			c14.23,0,25.81,12.68,25.81,28.27S188.96,173.55,174.73,173.55z"/>
	</g>
	<polygon points="446.58,156.98 496.14,156.98 496.14,52.13 496.14,4.72 446.58,14.64 	"/>
	<polygon points="0,171.69 0,219.29 49.56,219.29 96.7,219.29 96.48,168.21 49.34,168.21 49.56,142.98 49.51,95.8 0,105.69 	"/>
	<path d="M381.7,28.71c0,37.82,0,78.68,0,97.69c0,11.24-2.51,38.36-32.18,41.79c-1.9,0.27-3.84,0.39-5.83,0.34
		c-35.18,0-36.96-33.93-36.96-42.13c0-5.32,0-62.88,0-83.04l-49.55,10.32V140c0,47.66,38.98,78.15,86.64,78.61
		c48.13,0.47,87.42-29.49,87.42-77.51V18.84L381.7,28.71z"/>
	<path d="M517.16,1.2l-9.78,1.39v50.93l17.88-0.83c6.76,0,14.26,0.43,20.35,2.19c23.03,6.68,38.29,26.9,38.16,54.91
		c0.17,35.41-26.65,58.26-59.02,58.26h-17.35v51h21.02c70.3,0,109.84-46.17,111.14-109.25c-1.15-56.07-32.53-99.52-88.86-108.48
		C539.58-0.46,528.28-0.38,517.16,1.2z"/>
	<rect x="446.58" y="168.21" width="49.56" height="50.82"/>
</g>
</svg>
