<?xml version="1.0" encoding="utf-8"?>
<!-- Generator: Adobe Illustrator 26.5.0, SVG Export Plug-In . SVG Version: 6.00 Build 0)  -->
<svg version="1.1" id="Layer_1" xmlns="http://www.w3.org/2000/svg" xmlns:xlink="http://www.w3.org/1999/xlink" x="0px" y="0px"
	 viewBox="0 0 500 109.18" style="enable-background:new 0 0 500 109.18;" xml:space="preserve">
<style type="text/css">

</style>
<g>
	<g>
		<path class="st0" d="M154.27,46.49c0,7.32-4.13,10.84-10.88,11c-1.07,0.04-3.15,0.04-4.91,0.04c0,5.19,0,10.02-0.04,11.5
			c-1.68,0.24-4.3,0.24-6.18,0c-0.12-5.36-0.12-28.73,0-33.19c3.64-0.08,8.27-0.12,11.66,0C150.96,36.09,154.27,40.3,154.27,46.49z
			 M147.97,46.73c0-3.36-1.39-4.87-4.87-5.03c-1.64-0.08-3.11-0.08-4.67,0c0.04,1.15,0.04,5.24,0.04,9.94
			c1.51,0.04,2.95,0,4.63-0.04C146.58,51.47,147.97,49.84,147.97,46.73z"/>
		<path class="st0" d="M175.46,69.81c-0.7-2.01-1.64-4.79-2.62-7.86c-3.19,0.08-8.23,0.08-11.5,0l-2.66,7.86
			c-1.92-0.24-4.42-0.98-5.93-1.72c1.63-5.16,8.02-24.39,10.84-32.25c1.8-0.2,5.28-0.2,6.96,0c2.86,7.86,9.21,27.09,10.84,32.25
			C179.96,68.79,177.38,69.56,175.46,69.81z M170.92,56.1c-1.43-4.38-2.82-8.8-3.85-12.23c-1.02,3.44-2.41,7.86-3.8,12.23H170.92z"
			/>
		<path class="st0" d="M184.29,35.84c1.72-0.25,4.99-0.25,6.3,0c0.12,5.77,0.08,23.12,0,27.46c3.52-0.08,10.35-0.08,13.38,0
			c0.16,1.68,0.16,4.22,0,5.73c-3.03,0.12-16.41,0.12-19.69,0C184.25,62.04,184.25,42.8,184.29,35.84z"/>
		<path class="st0" d="M207.49,35.84c2.41-0.16,7.77-0.16,9.94,0c0.94,4.09,3.4,14.89,5.32,24.47c1.88-9.57,4.34-20.38,5.28-24.47
			c2.17-0.16,7.53-0.16,9.94,0c0.04,7.04,0.12,26.23,0,33.19c-1.64,0.24-4.09,0.24-5.93,0c-0.12-3.68,0.08-16.08,0.04-25.62
			c-1.88,8.67-5.48,22.71-6.3,25.49c-1.64,0.16-4.26,0.12-6.1,0c-0.82-2.78-4.42-16.82-6.3-25.49c-0.04,9.54,0.16,21.93,0.04,25.62
			c-1.84,0.24-4.29,0.24-5.93,0C207.37,62.08,207.45,42.88,207.49,35.84z"/>
		<path class="st0" d="M264.52,41.61c-2,0.04-5.07,0.08-8.43,0.08c0.08,7.12,0.08,25.33-0.04,27.34c-2.09,0.24-4.42,0.24-6.3,0
			c-0.12-1.64-0.12-20.05-0.04-27.34c-3.23,0-6.26-0.04-8.47-0.08c-0.12-1.92-0.12-4.09,0-5.77c5.77-0.16,17.88-0.16,23.28,0
			C264.69,37.93,264.69,39.24,264.52,41.61z"/>
		<path class="st0" d="M286.94,69.85c-2.74-3.97-5.85-8.84-8.39-13.01c-1.39,0-3.19,0-4.54-0.04c0,5.73,0,11.09-0.04,12.23
			c-1.68,0.24-4.3,0.24-6.22,0c-0.08-4.58-0.08-29.63,0-33.19c3.76-0.08,9.7-0.12,13.1,0c7.04,0.24,10.19,4.38,10.19,10.31
			c0,5.11-2.13,8.35-5.9,9.78c2.5,3.72,5.44,8.39,6.88,10.8C290.7,67.97,288.7,69.2,286.94,69.85z M279.9,50.94
			c3.48-0.12,4.87-1.72,4.87-4.54c0-3.03-1.39-4.5-4.87-4.67c-1.63-0.08-4.3-0.08-5.93,0c0.04,0.86,0.04,4.71,0.04,9.25
			C275.93,51.03,277.9,51.03,279.9,50.94z"/>
		<path class="st0" d="M316.76,69.03c-3.31,0.08-17.47,0.08-21.03,0c-0.04-10.97-0.04-22.06,0-33.19c3.56-0.12,17.6-0.12,20.79,0
			c0.16,2,0.16,3.88,0,5.77c-1.51,0.12-12.56,0.04-14.28,0c0.04,1.35,0.04,4.34,0.04,7.7c4.3-0.04,11.21-0.04,12.56,0.08
			c0.16,2.01,0.16,3.89,0,5.81c-1.31,0.08-8.23,0.12-12.56,0.08c0,3.68-0.04,6.96-0.04,8.06c1.88-0.08,13.1-0.08,14.52,0
			C316.93,65.23,316.93,67.07,316.76,69.03z"/>
		<path class="st0" d="M342.09,69.03c-3.31,0.08-17.47,0.08-21.03,0c-0.04-10.97-0.04-22.06,0-33.19c3.56-0.12,17.6-0.12,20.79,0
			c0.16,2,0.16,3.88,0,5.77c-1.51,0.12-12.56,0.04-14.28,0c0.04,1.35,0.04,4.34,0.04,7.7c4.3-0.04,11.21-0.04,12.56,0.08
			c0.16,2.01,0.16,3.89,0,5.81c-1.31,0.08-8.23,0.12-12.56,0.08c0,3.68-0.04,6.96-0.04,8.06c1.88-0.08,13.1-0.08,14.52,0
			C342.25,65.23,342.25,67.07,342.09,69.03z"/>
		<path class="st0" d="M355.05,35.84c1.47-0.2,4.54-0.2,6.18,0c0.08,7.2,0.08,26.43,0,33.19c-2.09,0.24-4.3,0.24-6.18,0
			C354.88,62.56,354.88,43.29,355.05,35.84z"/>
		<path class="st0" d="M365.2,64.53c0.86-1.43,2.57-3.6,3.8-4.71c2.7,2.33,5.93,4.01,8.84,4.01c2.62,0,4.42-1.39,4.42-3.76
			c0-2.41-0.9-3.56-6.79-5.61c-6.06-2.09-8.88-4.91-8.88-9.61c0-6.1,3.85-9.5,10.8-9.5c4.09,0,7.77,1.68,10.39,4.38
			c-0.9,1.47-2.33,3.11-3.76,4.3c-2.37-2.05-4.25-2.9-6.96-2.94c-2.62-0.04-4.09,1.31-4.09,3.44c0,2.29,1.23,3.44,6.26,5.2
			c6.59,2.29,9.25,5.03,9.25,10.07c0,6.22-3.72,9.86-11.17,9.86C372.23,69.64,368.39,67.8,365.2,64.53z"/>
		<path class="st0" d="M392.44,35.84c1.72-0.25,4.99-0.25,6.3,0c0.12,5.77,0.08,23.12,0,27.46c3.52-0.08,10.35-0.08,13.38,0
			c0.16,1.68,0.16,4.22,0,5.73c-3.03,0.12-16.41,0.12-19.69,0C392.4,62.04,392.4,42.8,392.44,35.84z"/>
		<path class="st0" d="M436.1,69.81c-0.69-2.01-1.63-4.79-2.62-7.86c-3.19,0.08-8.23,0.08-11.5,0l-2.66,7.86
			c-1.92-0.24-4.42-0.98-5.93-1.72c1.63-5.16,8.02-24.39,10.84-32.25c1.8-0.2,5.28-0.2,6.96,0c2.86,7.86,9.21,27.09,10.84,32.25
			C440.6,68.79,438.02,69.56,436.1,69.81z M431.55,56.1c-1.43-4.38-2.82-8.8-3.84-12.23c-1.03,3.44-2.41,7.86-3.81,12.23H431.55z"/>
		<path class="st0" d="M444.97,35.84c1.76-0.25,4.71-0.25,5.85,0c3.11,4.71,10.68,17.39,12.69,21.2c-0.12-2.95-0.12-17.6,0-21.2
			c1.96-0.25,4.79-0.25,6.18,0c0.08,7.2,0.08,26.72,0,33.19c-1.43,0.29-3.6,0.29-5.53,0c-2.57-3.85-10.72-17.52-13.01-21.81
			c0.08,4.14,0.12,18.95,0,21.81c-1.84,0.29-4.22,0.24-6.18,0C444.89,62.28,444.89,43.04,444.97,35.84z"/>
		<path class="st0" d="M474.88,35.84c2.66-0.12,7-0.08,10.31,0c10.6,0.24,14.81,6.01,14.81,16.53c0,10.68-4.25,16.45-14.81,16.66
			c-2.13,0.04-8.14,0.04-10.31,0C474.75,66.04,474.8,39.61,474.88,35.84z M485.6,63.06c5.9-0.45,8.11-3.07,8.11-10.52
			c0-7.53-2.21-10.44-8.11-10.72c-1.68-0.08-3.03-0.08-4.54,0c0.08,3.36,0.08,18.78,0,21.28C482.28,63.18,484.04,63.18,485.6,63.06z
			"/>
	</g>
	<g>
		<polygon class="st0" points="38.56,89.79 38.56,15.79 16.23,15.79 0,0.15 54.46,0.15 54.46,109.18 		"/>
		<circle class="st0" cx="81.71" cy="81.92" r="8.86"/>
		<path class="st0" d="M72.83,0c-3.42,0-6.72,0.37-9.85,1.03v18c2.63-1.8,6.12-2.89,9.95-2.89c8.19,0,14.83,5.01,14.83,11.19
			c0,6.18-6.64,11.19-14.83,11.19c-3.83,0-7.32-1.1-9.95-2.89v17.85c3.13,0.67,6.44,1.03,9.85,1.03c19.96,0,36.13-12.2,36.13-27.26
			C108.96,12.2,92.79,0,72.83,0z"/>
	</g>
</g>
</svg>
