<?xml version="1.0" encoding="utf-8"?>
<!-- Generator: Adobe Illustrator 26.5.0, SVG Export Plug-In . SVG Version: 6.00 Build 0)  -->
<svg version="1.1" id="Layer_1" xmlns="http://www.w3.org/2000/svg" xmlns:xlink="http://www.w3.org/1999/xlink" x="0px" y="0px"
	 viewBox="0 0 248.55 126.45" style="enable-background:new 0 0 248.55 126.45;" xml:space="preserve">
<style type="text/css">
 
</style>
<path d="M237.39,0H11.16C5,0,0,5,0,11.16v104.13c0,6.16,5,11.16,11.16,11.16h226.23c6.16,0,11.16-5,11.16-11.16V11.16
	C248.55,5,243.55,0,237.39,0z M76.92,107.98H24.5V18.47h20.46v69.81h31.96V107.98z M142.17,107.98H85.91V18.47h55.62v19.69h-35.16
	V53h31.96v19.44h-31.96v15.85h35.8V107.98z M224.05,107.98H208.7l-34.52-48.59v48.59h-20.46V18.47h15.34l34.52,48.59V18.47h20.46
	V107.98z"/>
</svg>
