<?xml version="1.0" encoding="utf-8"?>
<!-- Generator: Adobe Illustrator 26.5.0, SVG Export Plug-In . SVG Version: 6.00 Build 0)  -->
<svg version="1.1" id="Layer_1" xmlns="http://www.w3.org/2000/svg" xmlns:xlink="http://www.w3.org/1999/xlink" x="0px" y="0px"
	 viewBox="0 0 39 44.27" style="enable-background:new 0 0 39 44.27;" xml:space="preserve">
<g>
	<polygon points="0,31.73 10.02,31.73 10.02,10.54 10.02,0.96 0,2.96 	"/>
	<path d="M14.27,0.24l-1.98,0.28v10.29l3.61-0.17c1.37,0,2.88,0.09,4.11,0.44c4.66,1.35,7.74,5.44,7.71,11.1
		c0.03,7.16-5.39,11.77-11.93,11.77h-3.51v10.31h4.25c14.21,0,22.2-9.33,22.46-22.08C38.77,10.86,32.43,2.08,21.04,0.26
		C18.8-0.09,16.51-0.08,14.27,0.24z"/>
	<rect y="34" width="10.02" height="10.27"/>
</g>
</svg>
