<?xml version="1.0" encoding="utf-8"?>
<!-- Generator: Adobe Illustrator 26.5.0, SVG Export Plug-In . SVG Version: 6.00 Build 0)  -->
<svg version="1.1" id="Layer_1" xmlns="http://www.w3.org/2000/svg" xmlns:xlink="http://www.w3.org/1999/xlink" x="0px" y="0px"
	 viewBox="0 0 55.89 56" style="enable-background:new 0 0 55.89 56;" xml:space="preserve">

<g>
	<polygon class="st0" points="19.78,46.06 19.78,8.1 8.33,8.1 0,0.08 27.94,0.08 27.94,56 	"/>
	<circle class="st0" cx="41.91" cy="42.02" r="4.54"/>
	<path class="st0" d="M37.36,0c-1.75,0-3.45,0.19-5.05,0.53v9.23c1.35-0.92,3.14-1.48,5.11-1.48c4.2,0,7.61,2.57,7.61,5.74
		c0,3.17-3.41,5.74-7.61,5.74c-1.96,0-3.76-0.56-5.11-1.48v9.16c1.61,0.34,3.3,0.53,5.05,0.53c10.24,0,18.53-6.26,18.53-13.98
		C55.89,6.26,47.59,0,37.36,0z"/>
</g>
</svg>
