<?xml version="1.0" encoding="utf-8"?>
<!-- Generator: Adobe Illustrator 26.5.0, SVG Export Plug-In . SVG Version: 6.00 Build 0)  -->
<svg version="1.1" id="Layer_1" xmlns="http://www.w3.org/2000/svg" xmlns:xlink="http://www.w3.org/1999/xlink" x="0px" y="0px"
	 viewBox="0 0 89.12 65.98" style="enable-background:new 0 0 89.12 65.98;" xml:space="preserve">
<g>
	<path d="M80.88,3.1C70.43,7.03,58.79,9.19,46.3,9.53l-0.66,0.02l-2.97-0.02c-11-0.07-22.63-2.25-34.58-6.46L0,0.21l9.94,34.73
		c0.72,2.54,2.38,4.66,4.43,5.91l-2.68,0.19l7.14,24.93l4.46-1.62c6.06-2.2,9.52-3.04,15.06-3.49l6.21,5.11l6.2-5.11
		c5.5,0.45,8.96,1.29,15,3.49l4.46,1.62l7.81-27.27l1.36-4.78h0.01L89.12,0L80.88,3.1z M41,56.26c-7.77,0.42-11.67,1.21-19.18,3.94
		c-1.73-6.05-2.6-9.08-4.33-15.13c3.36-0.24,5.05-0.35,8.47-0.51c0.3,1.35,0.45,2.02,0.74,3.37c3.28-0.3,4.94-0.41,8.25-0.57
		c-0.48-3.74-0.72-5.61-1.2-9.35c-6.22-0.09-9.32-0.17-15.4-0.38c-1.68-0.06-3.52-1.81-4.11-3.9C11.71,24.9,9.18,16.07,6.65,7.24
		c11.51,4.06,23.77,6.63,36.02,6.71c0.09,4.82,0.13,7.24,0.22,12.06c-4.3-0.05-6.46-0.14-10.74-0.48c-0.16-1.25-0.24-1.87-0.4-3.12
		c-4.42-0.41-6.63-0.71-11-1.47c0.89,4.05,1.34,6.07,2.23,10.12c6.61,0.61,9.96,0.8,16.67,0.93c1.84,0.04,3.38,1.4,3.41,3.06
		c0.13,7.24,0.19,10.86,0.32,18.09C43.4,54.83,42.34,56.19,41,56.26z M75.97,29.94c-3.89,0.53-5.86,0.76-9.83,1.13
		c0.89-4.05,1.34-6.07,2.23-10.12c-4.37,0.77-6.58,1.06-11,1.47c-0.48,3.74-0.72,5.61-1.2,9.35c-0.24,1.83-0.35,2.75-0.59,4.58
		c-0.09,0.67-0.13,1-0.21,1.66c-0.48,3.74-0.72,5.61-1.2,9.35c3.32,0.16,4.97,0.28,8.25,0.57c0.32-1.48,0.49-2.22,0.82-3.7
		c-1.62-0.07-2.44-0.1-4.07-0.16c0.47-2.59,0.7-3.88,1.16-6.46c5.49-0.13,8.22-0.22,13.57-0.47c-0.04,0.14-0.06,0.22-0.1,0.36
		c-0.83,2.88-1.24,4.32-2.06,7.21c-1.77,6.2-2.66,9.3-4.44,15.49c-7.52-2.73-11.41-3.52-19.18-3.94c-1.34-0.07-2.4-1.44-2.37-3.1
		c0.12-6.67,0.18-10.01,0.3-16.68c0.01-0.56,0.02-0.85,0.03-1.41c0.15-8.44,0.23-12.67,0.38-21.11c12.21-0.33,24.56-2.4,36.02-6.71
		C80.3,14.81,78.14,22.37,75.97,29.94z"/>
	<polygon points="47.5,26.22 47.75,15.01 60.73,13.87 48.78,15.75 	"/>
	<polygon points="65.25,38.5 72.64,38.09 68.37,53.05 71.72,38.9 	"/>
	<polygon points="13.32,26.59 15.56,34.57 17.95,36.7 27.64,36.99 18.31,36.22 15.96,34.2 	"/>
	<polygon points="9.25,13.85 7.76,8.78 16.41,11.32 9.27,10.02 	"/>
</g>
<polygon points="42.32,41.44 42.51,53.13 41.44,55.26 31.63,56.28 41.03,54.82 41.81,52.46 "/>
</svg>
