<?xml version="1.0" encoding="utf-8"?>
<!-- Generator: Adobe Illustrator 26.5.0, SVG Export Plug-In . SVG Version: 6.00 Build 0)  -->
<svg version="1.1" id="Layer_1" xmlns="http://www.w3.org/2000/svg" xmlns:xlink="http://www.w3.org/1999/xlink" x="0px" y="0px"
	 viewBox="0 0 176.63 70.87" style="enable-background:new 0 0 176.63 70.87;" xml:space="preserve">

<g>
	<g>
		<g>
			<g>
				<path class="st0" d="M174.14,2.6c-1.89-1.73-3.96-2.6-6.22-2.6h-48.73v17.45v0.04v52.93h17.61V17.49l22.23,0v52.93h17.61V8.8
					C176.63,6.32,175.8,4.25,174.14,2.6z"/>
			</g>
			<g>
				<g>
					<path class="st0" d="M77.2,39.61h29.01V22.11l-29.01,0v-4.62l39.15,0l0-17.49H77.2H59.59v17.49v4.62v17.07v21.76
						c0,2.41,0.87,4.48,2.61,6.21c1.74,1.73,3.83,2.6,6.25,2.6h47.9V52.25H77.2V39.61z"/>
				</g>
				<g>
					<polygon class="st0" points="56.76,0 0,0 0,17.49 19.57,17.49 19.57,70.87 37.18,70.87 37.18,17.49 56.76,17.49 					"/>
				</g>
			</g>
		</g>
	</g>
</g>
</svg>
